<?xml version="1.0" encoding="UTF-8"?>
<svg width="104px" height="8px" viewBox="0 0 104 8" version="1.1" xmlns="http://www.w3.org/2000/svg" xmlns:xlink="http://www.w3.org/1999/xlink">
    <!-- Generator: Sketch 49.1 (51147) - http://www.bohemiancoding.com/sketch -->
    <title>Combined Shape</title>
    <desc>Created with Sketch.</desc>
    <defs></defs>
    <g id="Page-1" stroke="none" stroke-width="1" fill="none" fill-rule="evenodd">
        <path d="M102.280058,1.20427114 L104,4.46000259 C104,4.46000259 98.2463612,8 90.6475934,8 C82.3700424,8 79.0011552,4.14883962 71.3453215,4.14883962 C63.6894879,4.14883962 61.0144012,8 52.0280323,8 C43.0406623,8 40.4416635,4.15195125 32.7858298,4.15195125 C25.128995,4.15195125 21.6950327,7.99481395 13.4164806,7.99481395 C5.39822873,7.99481395 0,4.57824452 0,4.57824452 L1.72469126,1.32816451 C3.92562462,2.34042627 8.09378191,3.84597433 13.4164806,3.84597433 C21.6950327,3.84597433 25.128995,0.00311162972 32.7858298,0.00311162972 C40.4416635,0.00311162972 43.0406623,3.85116038 52.0280323,3.85116038 C61.0144012,3.85116038 63.6894879,0 71.3453215,0 C79.0011552,0 82.3700424,3.85116038 90.6475934,3.85116038 C95.7533119,3.85116038 100.026013,2.25296329 102.280058,1.20427114 Z" id="Combined-Shape" fill="#FECB00"></path>
    </g>
</svg>